<?xml version="1.0" encoding="utf-8"?>
<!-- Svg Vector Icons : http://www.onlinewebfonts.com/icon -->
<!DOCTYPE svg PUBLIC "-//W3C//DTD SVG 1.1//EN" "http://www.w3.org/Graphics/SVG/1.1/DTD/svg11.dtd">
<svg version="1.1" xmlns="http://www.w3.org/2000/svg" xmlns:xlink="http://www.w3.org/1999/xlink" x="0px" y="0px" viewBox="0 0 256 256" enable-background="new 0 0 256 256" xml:space="preserve">
<metadata> Svg Vector Icons : http://www.onlinewebfonts.com/icon </metadata>
<g><g><path fill="#000000" d="M128,129.5c33.6,0,60.9-27.3,60.9-60.8c0-33.6-27.3-60.9-60.9-60.9c-33.6,0-60.8,27.3-60.8,60.9S94.3,129.5,128,129.5 M158.8,134L128,172.1L97.1,134c0,0-67.6-1.5-87.1,114.3h117.3h1.5H246C226.4,132.5,158.8,134,158.8,134"/><path fill="#000000" d="M128,132.3c3.8,0,8.1,0.6,10.7,1.1c-1,3.8-3.5,11.3-8.2,16.3h-5.2c-4.6-4.9-7.1-12.5-8.1-16.3C119.9,132.9,124.2,132.3,128,132.3"/><path fill="#000000" d="M127.8,226c-8.7-5.4-14-10.9-15.8-12.8c2.5-19.3,11.9-51,14.2-58.7h3.6c2.3,7.7,11.7,39.5,14.2,58.8C142.4,215.1,137.4,220.5,127.8,226"/></g></g>
</svg>